<svg width="110" height="128" viewBox="0 0 110 128" fill="none" xmlns="http://www.w3.org/2000/svg">
<g clip-path="url(#clip0)" filter="url(#filter0_d)">
<path d="M87.4986 33.6823C88.0624 1.0254 25.9666 -4.39243 22.239 33.6823H87.4986Z" fill="black"/>
<path d="M40.9032 24.5783C42.91 24.5783 44.5368 22.9674 44.5368 20.9802C44.5368 18.993 42.91 17.3821 40.9032 17.3821C38.8964 17.3821 37.2695 18.993 37.2695 20.9802C37.2695 22.9674 38.8964 24.5783 40.9032 24.5783Z" fill="#FCFCFC"/>
<path d="M68.9075 24.5783C70.9143 24.5783 72.5411 22.9674 72.5411 20.9802C72.5411 18.993 70.9143 17.3821 68.9075 17.3821C66.9006 17.3821 65.2738 18.993 65.2738 20.9802C65.2738 22.9674 66.9006 24.5783 68.9075 24.5783Z" fill="#FCFCFC"/>
<path d="M40.7936 9.31248L34.9202 0.725638C34.9112 0.71087 34.8979 0.69907 34.8822 0.691715C34.8664 0.684359 34.8487 0.681773 34.8315 0.68428C34.5391 0.756656 33.2653 1.10303 33.3018 1.85263C33.3018 2.48333 36.6274 7.09986 38.7001 10.1241L40.7936 9.31248Z" fill="black"/>
<path d="M69.2102 9.57084L75.0836 0.984003C75.0941 0.969753 75.1086 0.958781 75.1253 0.952373C75.1419 0.945964 75.16 0.944382 75.1775 0.947815C75.4647 1.02019 76.7438 1.36656 76.7072 2.11099C76.7072 2.74686 73.3816 7.36339 71.309 10.3825L69.2102 9.57084Z" fill="black"/>
<path d="M105.865 45.6036V75.4999C105.882 76.4726 105.658 77.4345 105.213 78.3018C104.106 80.3697 102.08 81.2072 99.4384 81.2434C96.9638 81.0831 95.1626 80.318 94.0036 78.9739C93.1596 77.9557 92.7115 76.672 92.7402 75.3551V44.58C92.7256 43.6491 92.9394 42.7286 93.3631 41.8975C93.7869 41.0664 94.4079 40.3495 95.1731 39.8084C95.2984 39.7205 95.4289 39.6378 95.5594 39.5602C100.101 36.8772 105.865 40.3667 105.865 45.6036Z" fill="black"/>
<path d="M17.3209 45.3243V75.2258C17.3393 76.197 17.1151 77.1578 16.6683 78.0226C15.5667 80.0905 13.5359 80.9279 10.9255 80.9641C8.44561 80.809 6.64445 80.0388 5.48544 78.6946C4.64389 77.6751 4.19605 76.3924 4.22202 75.0759V44.3008C4.20742 43.3698 4.42117 42.4493 4.84492 41.6182C5.26867 40.7871 5.88977 40.0702 6.6549 39.5291C6.78541 39.4413 6.91071 39.3585 7.04645 39.281C11.5624 36.6031 17.3209 40.0875 17.3209 45.3243Z" fill="black"/>
<path d="M87.5037 37.9473V87.5762C87.5267 89.3174 87.0506 91.0293 86.1307 92.5133C84.0006 95.8322 80.2033 97.0195 74.7389 96.0752V114.764C73.1727 117.974 71.1157 119.008 68.9126 119.318C65.5347 119.427 62.8669 118.284 61.4155 114.924V96.0442L48.2488 95.8891V115.363C47.1576 117.834 44.9858 119.013 42.0622 119.292C38.1518 119.142 35.698 117.643 34.7531 114.733V96.0442C29.0102 96.6283 24.8336 95.3618 23.0064 91.2467C22.471 90.0183 22.2041 88.6917 22.2232 87.3539V37.9473H87.5037Z" fill="black"/>
</g>
<defs>
<filter id="filter0_d" x="0.195923" y="0.684082" width="109.664" height="126.608" filterUnits="userSpaceOnUse" color-interpolation-filters="sRGB">
<feFlood flood-opacity="0" result="BackgroundImageFix"/>
<feColorMatrix in="SourceAlpha" type="matrix" values="0 0 0 0 0 0 0 0 0 0 0 0 0 0 0 0 0 0 127 0"/>
<feOffset dy="4"/>
<feGaussianBlur stdDeviation="2"/>
<feColorMatrix type="matrix" values="0 0 0 0 0 0 0 0 0 0 0 0 0 0 0 0 0 0 0.25 0"/>
<feBlend mode="normal" in2="BackgroundImageFix" result="effect1_dropShadow"/>
<feBlend mode="normal" in="SourceGraphic" in2="effect1_dropShadow" result="shape"/>
</filter>
<clipPath id="clip0">
<rect width="101.664" height="118.608" fill="white" transform="translate(4.19592 0.684082)"/>
</clipPath>
</defs>
</svg>
