<svg width="100" height="122" viewBox="0 0 100 122" fill="none" xmlns="http://www.w3.org/2000/svg">
<g clip-path="url(#clip0)">
<path d="M61.4869 31.7304C65.7937 30.4935 72.0324 29.0317 76.6597 29.3316C85.7068 31.2057 92.4922 35.0663 96.5257 41.5132C78.0073 53.1513 79.3455 80.4757 99.532 89.0215C95.5644 102.899 82.889 121.256 73.8701 121.256C67.1131 121.528 59.3288 116.936 54.0795 116.664C47.8973 116.664 39.001 121.097 32.1308 121.631C23.159 121.256 16.0627 110.011 11.9821 104.389C2.39774 89.4994 -0.599128 73.1761 1.2103 55.8126C4.50874 42.5627 12.5192 33.9794 25.4585 30.2686C25.8927 30.146 26.3377 30.0644 26.7873 30.025C34.1249 29.4195 41.4776 31.0017 47.9067 34.5697C50.2049 35.2655 52.67 35.1864 54.9183 34.3448C57.0419 33.3177 59.2371 32.444 61.4869 31.7304Z" fill="black"/>
<path d="M50.112 27.9072C50.4984 12.6146 58.4806 3.30034 74.3037 0.151855C73.7288 15.585 67.179 26.08 50.112 27.9072Z" fill="black"/>
</g>
<defs>
<clipPath id="clip0">
<rect width="98.84" height="121.432" fill="white" transform="translate(0.691956 0.151855)"/>
</clipPath>
</defs>
</svg>
