<svg width="115" height="115" viewBox="0 0 115 115" fill="none" xmlns="http://www.w3.org/2000/svg">
<g clip-path="url(#clip0)">
<path d="M57.6735 114.287C89.0596 114.287 114.503 88.8435 114.503 57.4574C114.503 26.0712 89.0596 0.627686 57.6735 0.627686C26.2873 0.627686 0.843811 26.0712 0.843811 57.4574C0.843811 88.8435 26.2873 114.287 57.6735 114.287Z" stroke="black" stroke-width="1.21432" stroke-miterlimit="10"/>
<path d="M57.6906 84.8123C72.7979 84.8123 85.0447 72.5654 85.0447 57.4582C85.0447 42.3509 72.7979 30.104 57.6906 30.104C42.5833 30.104 30.3364 42.3509 30.3364 57.4582C30.3364 72.5654 42.5833 84.8123 57.6906 84.8123Z" fill="black" stroke="black" stroke-width="0.57892" stroke-miterlimit="10"/>
<path d="M73.5926 29.408H107.104C83.4122 -8.98397 31.2977 -6.97033 8.92377 28.2395L26.0108 51.9393C31.6788 29.2588 52.4451 18.9585 73.5926 29.408Z" fill="black" stroke="black" stroke-width="0.57892" stroke-miterlimit="10"/>
<path d="M8.92375 28.7781C-12.7541 66.6065 13.2991 110.758 54.5002 114.288L69.4161 87.3479C45.1197 96.4632 22.9696 77.4786 25.9859 52.0552L8.92375 28.7781Z" fill="#2D2D2D" stroke="black" stroke-width="0.59304" stroke-miterlimit="10"/>
<path d="M54.525 114.288C102.712 114.536 126.809 70.6751 107.435 29.764L73.866 29.4077C96.9691 44.2573 94.6737 77.2381 69.6481 87.3478L54.525 114.288Z" fill="#7A7A7A" stroke="black" stroke-width="0.59304" stroke-miterlimit="10"/>
</g>
<defs>
<clipPath id="clip0">
<rect width="114.372" height="114.372" fill="white" transform="translate(0.487915 0.271973)"/>
</clipPath>
</defs>
</svg>
